<?xml version="1.0" encoding="iso-8859-1"?>
<!-- Generator: Adobe Illustrator 19.0.0, SVG Export Plug-In . SVG Version: 6.00 Build 0)  -->
<svg xmlns="http://www.w3.org/2000/svg" xmlns:xlink="http://www.w3.org/1999/xlink" version="1.1" id="Capa_1" x="0px" y="0px" viewBox="0 0 512 512" style="enable-background:new 0 0 512 512;" xml:space="preserve" width="512px" height="512px">
<g>
	<g>
		<path d="M231.93,168.338H63.618c-4.15,0-7.514,3.363-7.514,7.514s3.364,7.514,7.514,7.514H231.93c4.15,0,7.514-3.363,7.514-7.514    S236.08,168.338,231.93,168.338z" fill="#FFFFFF"/>
	</g>
</g>
<g>
	<g>
		<path d="M151.781,232.456H63.618c-4.15,0-7.514,3.363-7.514,7.514s3.364,7.514,7.514,7.514h88.163c4.15,0,7.514-3.363,7.514-7.514    S155.931,232.456,151.781,232.456z" fill="#FFFFFF"/>
	</g>
</g>
<g>
	<g>
		<path d="M119.722,296.575H63.618c-4.15,0-7.514,3.363-7.514,7.514s3.364,7.514,7.514,7.514h56.104c4.15,0,7.514-3.363,7.514-7.514    S123.872,296.575,119.722,296.575z" fill="#FFFFFF"/>
	</g>
</g>
<g>
	<g>
		<path d="M165.807,296.575h-22.041c-4.15,0-7.514,3.363-7.514,7.514s3.364,7.514,7.514,7.514h22.041    c4.15,0,7.514-3.363,7.514-7.514S169.957,296.575,165.807,296.575z" fill="#FFFFFF"/>
	</g>
</g>
<g>
	<g>
		<path d="M247.96,72.159H119.722c-4.15,0-7.514,3.363-7.514,7.514s3.364,7.514,7.514,7.514H247.96c4.15,0,7.514-3.363,7.514-7.514    S252.109,72.159,247.96,72.159z" fill="#FFFFFF"/>
	</g>
</g>
<g>
	<g>
		<path d="M175.826,392.754h-64.119c-4.15,0-7.514,3.363-7.514,7.514s3.364,7.514,7.514,7.514h64.119    c4.15,0,7.514-3.363,7.514-7.514S179.976,392.754,175.826,392.754z" fill="#FFFFFF"/>
	</g>
</g>
<g>
	<g>
		<path d="M247.96,392.754H199.87c-4.15,0-7.514,3.363-7.514,7.514s3.364,7.514,7.514,7.514h48.089c4.15,0,7.514-3.363,7.514-7.514    S252.109,392.754,247.96,392.754z" fill="#FFFFFF"/>
	</g>
</g>
<g>
	<g>
		<path d="M95.677,120.248H63.618c-4.15,0-7.514,3.363-7.514,7.514c0,4.151,3.364,7.514,7.514,7.514h32.059    c4.15,0,7.514-3.363,7.514-7.514C103.191,123.612,99.827,120.248,95.677,120.248z" fill="#FFFFFF"/>
	</g>
</g>
<g>
	<g>
		<path d="M207.885,120.248h-80.149c-4.15,0-7.514,3.363-7.514,7.514c0,4.151,3.364,7.514,7.514,7.514h80.149    c4.15,0,7.514-3.363,7.514-7.514C215.399,123.612,212.035,120.248,207.885,120.248z" fill="#FFFFFF"/>
	</g>
</g>
<g>
	<g>
		<path d="M289.036,168.338h-33.061c-4.15,0-7.514,3.363-7.514,7.514s3.364,7.514,7.514,7.514h33.061    c4.15,0,7.514-3.363,7.514-7.514S293.185,168.338,289.036,168.338z" fill="#FFFFFF"/>
	</g>
</g>
<g>
	<g>
		<path d="M508.35,49.899c-1.95-4.17-4.641-7.979-7.895-11.233c-11.633-11.632-29.81-14.873-44.732-7.895    c-4.17,1.95-7.979,4.641-11.233,7.895l-11.689,11.689l-17.357-17.356c-2.934-2.933-7.692-2.933-10.626,0l-37.138,37.138V7.54    c0-4.151-3.364-7.514-7.514-7.514H7.514C3.364,0.026,0,3.389,0,7.54v408.758c0,1.971,0.804,3.921,2.201,5.314l88.163,88.163    c1.4,1.395,3.336,2.2,5.313,2.2h264.49c4.15,0,7.514-3.363,7.514-7.514V388.245c0-4.151-3.364-7.514-7.514-7.514    c-4.15,0-7.514,3.363-7.514,7.514v108.701H103.191v-80.649c0-4.151-3.364-7.514-7.514-7.514H15.028V15.053h337.626v70.111    l-38.512,38.512c-2.933,2.934-2.864,7.97,0.179,10.799c2.897,2.693,7.645,2.629,10.447-0.171l27.886-27.888v20.343    c0,1.098,0.241,2.138,0.664,3.078L250.701,232.456h-74.875c-4.15,0-7.514,3.363-7.514,7.514s3.364,7.514,7.514,7.514h59.847    l-57.548,57.548c-0.733,0.735-1.33,1.645-1.7,2.616l-20.403,53.045h-20.271c-4.15,0-7.514,3.363-7.514,7.514    s3.364,7.514,7.514,7.514h14.491c-0.658,1.711-1.316,3.422-1.975,5.134c-1.13,2.939-0.78,6.177,1.52,8.479    c2.077,2.077,5.268,2.755,8.011,1.699l73.677-28.336c0.971-0.369,1.88-0.967,2.616-1.699l118.563-118.563v110.245    c0,4.151,3.364,7.514,7.514,7.514c4.15,0,7.514-3.363,7.514-7.514V228.95c0-0.481-0.05-0.951-0.136-1.408l132.91-132.911    C512.087,82.998,515.328,64.821,508.35,49.899z M88.163,423.81v62.51l-62.51-62.51H88.163z M367.682,91.389l42.451-42.451    l12.043,12.043l-54.494,54.493V91.389z M168.184,370.94l18.117-47.105l28.988,28.988L168.184,370.94z M228.777,345.058    l-34.712-34.712l148.059-148.06l34.712,34.712L228.777,345.058z M489.83,84.004L387.463,186.372l-34.712-34.712L455.117,49.292    c9.463-9.462,25.251-9.462,34.712,0.001C499.291,58.753,499.291,74.544,489.83,84.004z" fill="#FFFFFF"/>
	</g>
</g>
<g>
	<g>
		<path d="M460.785,78.339c-2.935-2.935-7.692-2.934-10.627-0.001l-5.668,5.667c-2.934,2.934-2.934,7.692,0,10.626    c2.894,2.894,7.731,2.895,10.627,0.001l5.668-5.667C463.719,86.03,463.719,81.272,460.785,78.339z" fill="#FFFFFF"/>
	</g>
</g>
<g>
	<g>
		<path d="M438.115,101.007c-2.935-2.933-7.692-2.934-10.627,0.001l-5.667,5.667c-2.934,2.934-2.933,7.692,0,10.626    c2.895,2.893,7.732,2.894,10.627-0.001l5.667-5.667C441.049,108.698,441.049,103.94,438.115,101.007z" fill="#FFFFFF"/>
	</g>
</g>
<g>
	<g>
		<path d="M415.445,123.678c-2.933-2.935-7.691-2.934-10.626-0.001l-5.668,5.667c-2.735,2.735-2.917,7.254-0.4,10.195    c2.81,3.282,7.969,3.487,11.025,0.432l5.668-5.667C418.379,131.369,418.379,126.611,415.445,123.678z" fill="#FFFFFF"/>
	</g>
</g>
<g>
</g>
<g>
</g>
<g>
</g>
<g>
</g>
<g>
</g>
<g>
</g>
<g>
</g>
<g>
</g>
<g>
</g>
<g>
</g>
<g>
</g>
<g>
</g>
<g>
</g>
<g>
</g>
<g>
</g>
</svg>
