<?xml version="1.0" encoding="iso-8859-1"?>
<!-- Generator: Adobe Illustrator 19.0.0, SVG Export Plug-In . SVG Version: 6.00 Build 0)  -->
<svg xmlns="http://www.w3.org/2000/svg" xmlns:xlink="http://www.w3.org/1999/xlink" version="1.1" id="Capa_1" x="0px" y="0px" viewBox="0 0 480 480" style="enable-background:new 0 0 480 480;" xml:space="preserve" width="512px" height="512px">
<g>
	<g>
		<path d="M345.6,109.312c8.326-5.531,13.332-14.861,13.336-24.856V69.872c-0.27-16.5-13.865-29.657-30.365-29.387    c-16.119,0.264-29.123,13.267-29.387,29.387v14.584c0.011,10.071,5.101,19.457,13.536,24.96    c-14.645,4.465-24.669,17.954-24.72,33.264v34.184c0,4.418,3.582,8,8,8h66.688c4.418,0,8-3.582,8-8V142.68    C370.629,127.232,360.424,113.659,345.6,109.312z M321.344,168.824H304V142.68c0.024-6.827,3.727-13.112,9.688-16.44l7.656,10.584    V168.824z M315.2,85.13c-0.005-0.222-0.005-0.444,0-0.666V69.88c0.184-7.664,6.545-13.727,14.209-13.543    c7.405,0.178,13.365,6.138,13.543,13.543v14.584c0.184,7.664-5.88,14.025-13.543,14.209    C321.745,98.857,315.384,92.793,315.2,85.13z M354.688,168.864h-17.344v-31.936l8-10.496c5.768,3.383,9.321,9.561,9.344,16.248    V168.864z" fill="#FFFFFF"/>
	</g>
</g>
<g>
	<g>
		<path d="M416,0H64c-4.418,0-8,3.582-8,8v464c0,4.418,3.582,8,8,8h352c4.418,0,8-3.582,8-8V8C424,3.582,420.418,0,416,0z M408,464    H72V16h336V464z" fill="#FFFFFF"/>
	</g>
</g>
<g>
	<g>
		<rect x="104" y="40" width="152" height="16" fill="#FFFFFF"/>
	</g>
</g>
<g>
	<g>
		<rect x="104" y="80" width="152" height="16" fill="#FFFFFF"/>
	</g>
</g>
<g>
	<g>
		<rect x="104" y="128" width="152" height="16" fill="#FFFFFF"/>
	</g>
</g>
<g>
	<g>
		<rect x="104" y="168" width="152" height="16" fill="#FFFFFF"/>
	</g>
</g>
<g>
	<g>
		<rect x="104" y="224" width="272" height="16" fill="#FFFFFF"/>
	</g>
</g>
<g>
	<g>
		<rect x="104" y="264" width="272" height="16" fill="#FFFFFF"/>
	</g>
</g>
<g>
	<g>
		<rect x="104" y="304" width="272" height="16" fill="#FFFFFF"/>
	</g>
</g>
<g>
	<g>
		<rect x="104" y="344" width="144" height="16" fill="#FFFFFF"/>
	</g>
</g>
<g>
	<g>
		<rect x="288" y="392" width="24" height="16" fill="#FFFFFF"/>
	</g>
</g>
<g>
	<g>
		<rect x="352" y="392" width="24" height="16" fill="#FFFFFF"/>
	</g>
</g>
<g>
	<g>
		<rect x="320" y="392" width="24" height="16" fill="#FFFFFF"/>
	</g>
</g>
<g>
	<g>
		<rect x="288" y="424" width="88" height="16" fill="#FFFFFF"/>
	</g>
</g>
<g>
</g>
<g>
</g>
<g>
</g>
<g>
</g>
<g>
</g>
<g>
</g>
<g>
</g>
<g>
</g>
<g>
</g>
<g>
</g>
<g>
</g>
<g>
</g>
<g>
</g>
<g>
</g>
<g>
</g>
</svg>
